<mxfile host="app.diagrams.net" modified="2024-03-10T07:01:05.453Z" agent="Mozilla/5.0 (Windows NT 10.0; Win64; x64) AppleWebKit/537.36 (KHTML, like Gecko) Chrome/122.0.0.0 Safari/537.36" version="23.1.1" etag="IId0xMdn1LfCuaR6gSg6" type="github">
  <diagram name="第 1 页" id="nu7HGYZq5N0_X5PfnPU6">
    <mxGraphModel>
      <root>
        <mxCell id="0" />
        <mxCell id="1" parent="0" />
      </root>
    </mxGraphModel>
  </diagram>
</mxfile>
